<svg width="56" height="12" viewBox="0 0 56 12" fill="none" xmlns="http://www.w3.org/2000/svg">
<path fill-rule="evenodd" clip-rule="evenodd" d="M36.8903 6.08286C36.9235 6.30286 36.9401 6.47209 36.9898 6.64132C37.3547 8.21517 38.5657 9.2644 40.1415 9.39979C41.5348 9.51825 42.6296 8.97671 43.4424 7.80902C43.8405 7.25055 44.4875 7.14902 45.0017 7.60594C45.3003 7.85978 45.3334 8.19825 45.1012 8.51978C44.9685 8.68902 44.8524 8.85825 44.7197 9.0444C44.1889 9.78901 43.4922 10.2967 42.6296 10.6013C41.2363 11.0921 39.8429 11.1598 38.4661 10.6352C36.6083 9.94132 35.5135 8.55363 35.1983 6.57363C35.0159 5.35517 35.132 4.13671 35.6794 3.03671C36.4756 1.46286 37.7197 0.498247 39.4448 0.210555C40.5893 0.0244008 41.7173 0.142862 42.7789 0.667478C44.2884 1.39517 45.2007 2.63055 45.5491 4.27209C45.6486 4.72902 45.6818 5.18594 45.7149 5.64286C45.7481 5.93055 45.6154 6.04902 45.3334 6.06594C45.2007 6.06594 45.0846 6.06594 44.9519 6.06594C42.3808 6.06594 39.8097 6.06594 37.2552 6.06594C37.1391 6.08286 37.0562 6.08286 36.8903 6.08286ZM43.9069 4.35671C43.6912 2.8844 41.9495 1.59825 40.3405 1.69979C38.6652 1.80132 37.0064 3.1044 36.9401 4.35671C39.2457 4.35671 41.5846 4.35671 43.9069 4.35671Z" fill="white"/>
<path fill-rule="evenodd" clip-rule="evenodd" d="M23.7199 6.03247C23.7365 6.18478 23.7531 6.28631 23.7697 6.40478C24.0848 8.14785 25.4782 9.34939 27.2033 9.38324C28.5138 9.40016 29.5256 8.85862 30.2886 7.77555C30.6867 7.20016 31.4 7.13247 31.8976 7.64016C32.1299 7.89401 32.1796 8.19862 31.9474 8.50324C31.8479 8.65555 31.7484 8.79093 31.6322 8.90939C31.0683 9.75555 30.2886 10.2971 29.3431 10.6186C27.9498 11.0925 26.5564 11.1263 25.2128 10.5848C23.2886 9.82324 22.2104 8.31708 21.9782 6.21862C21.8621 5.20324 21.9616 4.2217 22.3763 3.29093C23.1891 1.53093 24.4995 0.447852 26.4071 0.194005C27.419 0.0586207 28.4308 0.143236 29.3597 0.532467C31.0517 1.24324 32.0303 2.58016 32.4119 4.39093C32.4782 4.79708 32.528 5.23708 32.5446 5.64324C32.5612 5.9817 32.4948 6.04939 32.1465 6.04939C31.5493 6.04939 30.919 6.04939 30.3052 6.04939C28.2484 6.04939 26.1915 6.04939 24.1678 6.04939C24.0185 6.03247 23.8858 6.03247 23.7199 6.03247ZM30.7697 4.30631C30.554 2.85093 28.8621 1.61554 27.2033 1.64939C25.5943 1.68324 23.919 3.00324 23.7863 4.30631C26.1085 4.30631 28.4142 4.30631 30.7697 4.30631Z" fill="white"/>
<path fill-rule="evenodd" clip-rule="evenodd" d="M52.5823 6.8112C52.715 6.92966 52.7814 6.99735 52.8643 7.06504C53.7601 7.84351 54.6558 8.62197 55.5349 9.40043C55.5847 9.4512 55.6676 9.51889 55.7174 9.56966C56.0492 9.90812 56.0823 10.3989 55.7672 10.7374C55.4686 11.0758 55.0041 11.1266 54.6558 10.8389C54.0255 10.3143 53.4283 9.77274 52.8146 9.24812C51.9354 8.48658 51.0729 7.72504 50.1937 6.96351C50.1274 6.89581 50.0278 6.82812 49.8951 6.72658C49.8951 6.91274 49.8785 7.0312 49.8785 7.14966C49.8785 9.29889 49.8785 7.6912 49.8785 9.84043C49.8785 9.94197 49.8785 10.0435 49.8785 10.145C49.8454 10.6189 49.497 10.9574 49.0326 10.9235C48.5847 10.9066 48.2861 10.5681 48.2695 10.0943C48.2695 9.99274 48.2695 9.8912 48.2695 9.78966C48.2695 5.54197 48.2695 5.0512 48.2695 0.803506C48.2695 0.668121 48.2695 0.549659 48.2695 0.414275C48.2695 0.109659 48.3027 0.0588902 48.5847 0.0588902C48.9662 0.0419671 49.3477 0.0419671 49.7292 0.0419671C50.6416 0.0419671 51.5871 0.0758133 52.4994 0.025044C54.0421 -0.0426483 55.7672 1.22658 55.933 3.0712C56.0823 4.72966 54.971 6.30351 53.3122 6.64197C53.0966 6.69274 52.8643 6.76043 52.5823 6.8112ZM49.779 5.50812C49.8785 5.52504 49.9449 5.52504 49.9947 5.52504C50.7577 5.52504 51.5373 5.52504 52.3003 5.52504C52.516 5.52504 52.7482 5.50812 52.9638 5.42351C53.6771 5.20351 54.2411 4.76351 54.4236 3.98504C54.7387 2.64812 53.7601 1.42966 52.4165 1.42966C51.6202 1.42966 50.8406 1.42966 50.0278 1.42966C49.9283 1.42966 49.8454 1.44658 49.7458 1.44658C49.779 2.80043 49.779 4.13735 49.779 5.50812Z" fill="white"/>
<path fill-rule="evenodd" clip-rule="evenodd" d="M17.7483 6.04926C16.2222 6.04926 14.7459 6.04926 13.2364 6.04926C13.2364 6.18464 13.2198 6.3031 13.2198 6.42157C13.2198 7.60618 13.2198 8.77387 13.2198 9.95849C13.2198 10.1108 13.2198 10.2631 13.1867 10.3816C13.0705 10.7369 12.7056 10.957 12.3573 10.94C11.9758 10.9062 11.6606 10.6016 11.6108 10.2123C11.5942 10.1108 11.6108 10.0262 11.6108 9.92464C11.6108 5.7108 11.5942 5.2031 11.5942 1.00618C11.5942 0.836951 11.6108 0.66772 11.6606 0.515412C11.7933 0.160028 12.1582 -0.0430491 12.5397 0.0077201C12.8881 0.0584893 13.1867 0.363105 13.2198 0.735412C13.2364 0.853874 13.2198 0.955412 13.2198 1.07387C13.2198 3.24003 13.2364 1.70003 13.2364 3.86618C13.2364 4.00157 13.253 4.12003 13.253 4.23849C13.535 4.30618 17.4497 4.30618 17.7483 4.23849C17.7483 4.13695 17.7649 4.03541 17.7649 3.91695C17.7649 2.96926 17.7649 2.00464 17.7649 1.05695C17.7649 0.955412 17.7649 0.870797 17.7649 0.769258C17.798 0.346182 18.1132 0.0246432 18.5279 0.0077201C18.9426 -0.00920298 19.3241 0.312335 19.3739 0.735412C19.3904 0.836951 19.3739 0.921566 19.3739 1.0231C19.3739 3.98464 19.3739 6.92926 19.3739 9.8908C19.3739 9.99233 19.3739 10.0769 19.3739 10.1785C19.3241 10.6016 18.9592 10.94 18.5445 10.9231C18.1298 10.9062 17.798 10.5677 17.7483 10.1446C17.7483 10.0431 17.7483 9.95849 17.7483 9.85695C17.7483 8.7231 17.7483 7.55541 17.7483 6.42157C17.7483 6.32003 17.7483 6.20156 17.7483 6.04926Z" fill="white"/>
<path fill-rule="evenodd" clip-rule="evenodd" d="M4.5445 11.0084C3.4663 10.9915 2.45445 10.7546 1.52554 10.1792C1.12744 9.94229 0.76251 9.63767 0.463932 9.28229C0.314643 9.09613 0.132178 8.90998 0.0658277 8.67305C-0.0336983 8.36844 -0.050286 8.02998 0.231705 7.75921C0.54687 7.45459 0.97815 7.33613 1.40943 7.62383C1.82412 7.92844 2.02317 8.31767 2.37151 8.67305C2.86915 9.18075 3.51606 9.45152 4.21275 9.53613C4.85967 9.60382 5.49 9.5869 6.12033 9.3669C6.36914 9.26536 6.63455 9.1469 6.85019 8.97767C7.24829 8.52075 7.36441 7.87767 6.88336 7.43767C6.65114 7.23459 6.35256 7.08229 6.05398 6.9469C5.32412 6.62536 4.56109 6.40536 3.79806 6.20229C3.16772 6.04998 2.57057 5.8469 1.94024 5.66075C1.70801 5.59306 1.47578 5.45767 1.26014 5.33921C0.679572 5.01767 0.347818 4.50998 0.248292 3.8669C0.0658277 2.52998 0.54687 1.32844 1.69142 0.736133C3.48289 -0.16079 5.34071 -0.076175 7.13218 0.956133C7.46393 1.14229 7.7791 1.42998 8.06109 1.68382C8.27673 1.86998 8.44261 2.14075 8.52554 2.42844C8.60848 2.78382 8.44261 3.15613 8.01133 3.25767C7.6464 3.34229 7.31464 3.22382 7.04924 2.93613C6.99948 2.88536 6.94971 2.81767 6.91654 2.7669C6.50185 2.12383 5.8881 1.76844 5.15824 1.63306C4.42839 1.49767 3.69853 1.51459 3.00185 1.80229C2.75303 1.90382 2.48763 2.03921 2.28858 2.22536C1.99 2.63152 1.87388 3.17306 2.27199 3.68075C2.58715 3.98536 2.95208 4.15459 3.35019 4.23921C4.22933 4.45921 5.12507 4.69613 6.00422 4.91613C6.5682 5.06844 7.11559 5.25459 7.62981 5.55921C8.29332 5.91459 8.77436 6.43921 8.94024 7.20075C9.13929 8.13152 8.94024 9.01152 8.22696 9.68844C7.41417 10.4331 6.48526 10.8392 5.40706 10.9577C5.10848 10.9915 4.8099 10.9915 4.5445 11.0084Z" fill="white"/>
</svg>
